<svg xmlns="http://www.w3.org/2000/svg" viewBox="0 0 24 24" fill="none" stroke="currentColor" stroke-width="1.5" stroke-linecap="round" stroke-linejoin="round">
  <!-- brain outline shape -->
  <path d="M9.5 2a2.5 2.5 0 0 1 2.45 2H12a2.5 2.5 0 0 1 2.5 2.5v.5"/>
  <path d="M14.5 4a2.5 2.5 0 0 1 2.5 2.5 2.5 2.5 0 0 1 2 2.45"/>
  <path d="M19 8.95A2.5 2.5 0 0 1 21 11.5a2.5 2.5 0 0 1-2 2.45"/>
  <path d="M19 13.95A2.5 2.5 0 0 1 17 18.5"/>
  <path d="M9.5 2A2.5 2.5 0 0 0 7 4.5"/>
  <path d="M7 4.5A2.5 2.5 0 0 0 5 7a2.5 2.5 0 0 0-2 2.45"/>
  <path d="M3 9.45A2.5 2.5 0 0 0 3 14.5"/>
  <path d="M3 14.5A2.5 2.5 0 0 0 7 18.5"/>
  <!-- neural nodes -->
  <circle cx="12" cy="7" r="1"/>
  <circle cx="16" cy="11" r="1"/>
  <circle cx="8" cy="11" r="1"/>
  <circle cx="12" cy="15" r="1"/>
  <!-- connections -->
  <line x1="12" y1="7" x2="16" y2="11"/>
  <line x1="12" y1="7" x2="8" y2="11"/>
  <line x1="16" y1="11" x2="12" y2="15"/>
  <line x1="8" y1="11" x2="12" y2="15"/>
  <line x1="8" y1="11" x2="16" y2="11"/>
  <!-- stem -->
  <line x1="12" y1="15" x2="12" y2="22"/>
  <line x1="9" y1="22" x2="15" y2="22"/>
</svg>
